<svg xmlns="http://www.w3.org/2000/svg" width="165" height="64" viewBox="0 0 165 64"><g><g><g><g><path fill="#171716" d="M10.085 0C4.515 0 0 4.515 0 10.085v6.47h43.143a11.926 11.926 0 0 1 5.26 1.312 12.903 12.903 0 0 1 3.218 2.345l.059.058c.557.56 1.075 1.178 1.55 1.848 1.161 1.642 2.085 3.507 2.744 5.543.158.484.298.976.423 1.474.366 1.452.596 2.956.687 4.49.237 4.033-.507 7.946-2.096 11.018-.44.85-.936 1.618-1.483 2.3a10.68 10.68 0 0 1-2.001 1.935c-1.552 1.142-3.295 1.72-5.179 1.72H28.601c-3.144 0-6.194-.616-9.067-1.83a23.327 23.327 0 0 1-3.47-1.826 23.35 23.35 0 0 1-3.933-3.166 23.22 23.22 0 0 1-6.822-16.47v-1.828l37.35-.008a5.82 5.82 0 0 1 4.896 2.723c.185.293.358.607.518.942.416.867.75 1.873.995 3.004.364 1.672.548 3.676.548 5.954v1.8h-3.632l-.07-3.598v-.001c-.18-3.418-.864-5.219-1.451-6.15a2.147 2.147 0 0 0-1.666-1.01h-.386c-.693.057-1.3.417-1.688 1.009a12.957 12.957 0 0 0-.877 1.556 12.056 12.056 0 0 0-1.179 4.595s-.69 7.35 5.359 10.077l-.001-.002c.758.37 1.538.573 2.3.573 2.774 0 4.476-2.164 5.415-3.98 1.804-3.485 2.334-8.92.859-13.827-.523-1.738-1.296-3.41-2.354-4.905-1.84-2.598-4.49-4.018-7.293-4.018H0v33.444c0 5.57 4.515 10.085 10.085 10.085h43.571c5.57 0 10.085-4.515 10.085-10.085V0z"/></g><g><path fill="#171716" d="M36.167 30.97c.256-.623.553-1.237.891-1.835H9.05c.925 9.972 9.34 17.807 19.551 17.807h10.267a14.518 14.518 0 0 1-2.026-2.869 15.31 15.31 0 0 1-1.837-7.535 15.247 15.247 0 0 1 1.162-5.568z"/></g></g><g><g><path fill="#171716" d="M78.051 11.783h-3.813V8.38h12.016v3.404H82.44V21.4h-4.39z"/></g><g><path fill="#171716" d="M91.347 15.968l1.265-3.273 1.265 3.273zM95.96 21.4h4.538L94.807 8.38H90.49l-5.69 13.02h4.463l.874-2.269h4.948z"/></g><g><path fill="#171716" d="M109.332 13.29c0 .949-.576 1.525-1.786 1.525h-1.6v-3.05h1.6c1.21 0 1.786.576 1.786 1.525zm-1.507-4.91h-6.268V21.4h4.39v-3.2h1.878c3.628 0 5.934-1.897 5.934-4.91s-2.306-4.91-5.934-4.91z"/></g><g><path fill="#171716" d="M126.23 18.088V21.4h-10.825V8.38h10.584v3.311h-6.268v1.526h5.505v3.162h-5.505v1.71z"/></g><g><path fill="#171716" d="M130.963 11.783h-3.813V8.38h12.016v3.404h-3.813V21.4h-4.39z"/></g><g><path fill="#171716" d="M149 16.675v4.724h-4.39v-4.78l-4.91-8.24h4.631l2.66 4.502 2.679-4.502h4.24z"/></g><g><path fill="#171716" d="M88.188 38.306l-.018-9.486-4.706 7.905h-.856l-4.706-7.849v9.43h-1.785v-13.02h1.525l5.431 9.151 5.357-9.15h1.525l.019 13.02z"/></g><g><path fill="#171716" d="M103.191 36.688v1.618h-9.449v-13.02h9.189v1.619h-7.329v3.999h6.53v1.58h-6.53v4.204z"/></g><g><path fill="#171716" d="M109.09 26.905h-4.464v-1.619h10.77v1.619h-4.465v11.401h-1.841z"/></g><g><path fill="#171716" d="M122.405 32.763h-3.162v-5.858h3.162c2.38 0 3.626 1.06 3.626 2.92 0 1.86-1.246 2.938-3.626 2.938zm5.71 5.543l-3.088-4.37c1.823-.652 2.864-2.102 2.864-4.111 0-2.827-2.046-4.539-5.43-4.539h-5.078v13.02h1.86v-3.961h3.217c.28 0 .558-.02.819-.038l2.808 4z"/></g><g><path fill="#171716" d="M136.777 36.8c-2.92 0-5.078-2.12-5.078-5.004 0-2.882 2.158-5.003 5.078-5.003 2.883 0 5.04 2.12 5.04 5.003s-2.157 5.004-5.04 5.004zm0 1.655c3.962 0 6.901-2.827 6.901-6.659 0-3.831-2.939-6.658-6.9-6.658-4 0-6.939 2.845-6.939 6.658s2.94 6.66 6.938 6.66z"/></g><g><path fill="#171716" d="M77.977 43.811v4.539h6.529v1.6h-6.53v5.263h-1.86v-13.02h9.19v1.618z"/></g><g><path fill="#171716" d="M87.568 42.193h1.86v11.402h7.05v1.618h-8.91z"/></g><g><path fill="#171716" d="M103.955 53.706c-2.92 0-5.078-2.12-5.078-5.003s2.158-5.003 5.078-5.003c2.883 0 5.04 2.12 5.04 5.003s-2.157 5.003-5.04 5.003zm0 1.656c3.962 0 6.9-2.827 6.9-6.659s-2.938-6.659-6.9-6.659c-3.999 0-6.938 2.846-6.938 6.66 0 3.812 2.939 6.658 6.938 6.658z"/></g><g><path fill="#171716" d="M122.34 46.731c0 1.86-1.246 2.94-3.627 2.94h-3.162v-5.86h3.162c2.38 0 3.627 1.06 3.627 2.92zm2.083 8.482l-3.088-4.371c1.823-.65 2.865-2.102 2.865-4.11 0-2.828-2.046-4.539-5.431-4.539h-5.078v13.02h1.86v-3.962h3.218c.278 0 .558-.018.818-.037l2.809 3.999z"/></g><g><path fill="#171716" d="M136.627 53.595v1.618h-9.449v-13.02h9.188v1.618h-7.328v4h6.529v1.58h-6.529v4.204z"/></g><g><path fill="#171716" d="M150.492 42.193v13.02h-1.525l-7.812-9.709v9.709h-1.86v-13.02h1.525l7.812 9.709v-9.709z"/></g><g><path fill="#171716" d="M153.327 48.703c0-3.85 2.939-6.659 6.9-6.659 2.01 0 3.758.688 4.948 2.028l-1.209 1.172c-1.004-1.06-2.232-1.544-3.664-1.544-2.939 0-5.115 2.12-5.115 5.003s2.176 5.003 5.115 5.003c1.432 0 2.66-.502 3.664-1.562l1.21 1.172c-1.191 1.339-2.94 2.046-4.967 2.046-3.943 0-6.882-2.809-6.882-6.659z"/></g></g></g></g></svg>