<svg xmlns="http://www.w3.org/2000/svg" viewBox="0 0 64 64" width="64" height="64"><path fill="#171716" d="M10.085 0C4.515 0 0 4.515 0 10.085v6.47h43.143a11.926 11.926 0 0 1 5.26 1.312 12.903 12.903 0 0 1 3.218 2.345l.059.058c.557.56 1.075 1.178 1.55 1.848 1.161 1.642 2.085 3.507 2.744 5.543.158.484.298.976.423 1.474.366 1.452.596 2.956.687 4.49.237 4.033-.507 7.946-2.096 11.018-.44.85-.936 1.618-1.483 2.3a10.68 10.68 0 0 1-2.001 1.935c-1.552 1.142-3.295 1.72-5.179 1.72H28.601c-3.144 0-6.194-.616-9.067-1.83a23.327 23.327 0 0 1-3.47-1.826 23.35 23.35 0 0 1-3.933-3.166 23.22 23.22 0 0 1-6.822-16.47v-1.828l37.35-.008a5.82 5.82 0 0 1 4.896 2.723c.185.293.358.607.518.942.416.867.75 1.873.995 3.004.364 1.672.548 3.676.548 5.954v1.8h-3.632l-.07-3.598v-.001c-.18-3.418-.864-5.219-1.451-6.15a2.147 2.147 0 0 0-1.666-1.01h-.386c-.693.057-1.3.417-1.688 1.009a12.957 12.957 0 0 0-.877 1.556 12.056 12.056 0 0 0-1.179 4.595s-.69 7.35 5.359 10.077l-.001-.002c.758.37 1.538.573 2.3.573 2.774 0 4.476-2.164 5.415-3.98 1.804-3.485 2.334-8.92.859-13.827-.523-1.738-1.296-3.41-2.354-4.905-1.84-2.598-4.49-4.018-7.293-4.018H0v33.444c0 5.57 4.515 10.085 10.085 10.085h43.571c5.57 0 10.085-4.515 10.085-10.085V0z"/><path fill="#171716" d="M36.167 30.97c.256-.623.553-1.237.891-1.835H9.05c.925 9.972 9.34 17.807 19.551 17.807h10.267a14.518 14.518 0 0 1-2.026-2.869 15.31 15.31 0 0 1-1.837-7.535 15.247 15.247 0 0 1 1.162-5.568z"/></svg>
